<?xml version="1.0" encoding="utf-8"?>
<!-- Generator: Adobe Illustrator 16.0.0, SVG Export Plug-In . SVG Version: 6.00 Build 0)  -->
<!DOCTYPE svg PUBLIC "-//W3C//DTD SVG 1.1//EN" "http://www.w3.org/Graphics/SVG/1.1/DTD/svg11.dtd">
<svg version="1.1" id="Layer_1" xmlns="http://www.w3.org/2000/svg" xmlns:xlink="http://www.w3.org/1999/xlink" x="0px" y="0px"
	 width="162px" height="47px" viewBox="0 0 162 47" enable-background="new 0 0 162 47" xml:space="preserve">
<g>
	<g>
		<path fill="#516775" d="M68.958,21.744l-12.955,0.042L56.036,32.4l-4,0.013l-0.077-24l4-0.012l0.03,9.601l12.955-0.042l-0.031-9.6
			l4-0.012l0.077,24l-4,0.012L68.958,21.744z"/>
		<path fill="#516775" d="M82.826,39.384c-3.97,0.013-6.775-2.163-7.741-5.76l4.154-0.013c0.526,1.291,1.759,2.21,3.575,2.203
			c2.431-0.006,4.118-1.428,4.108-3.979l-0.007-2c-0.948,1.296-2.393,2.006-4.085,2.013c-4.307,0.015-7.3-2.715-7.316-7.484
			l-0.027-7.875l3.847-0.012l0.024,7.875c0.008,2.461,1.704,3.778,3.767,3.773c2.094-0.007,3.78-1.336,3.774-3.797l-0.025-7.875
			l3.846-0.012l0.049,15.382C90.788,36.559,87.504,39.369,82.826,39.384z"/>
		<path fill="#516775" d="M110.02,24.313c0.015,4.739-3.482,8.226-8.313,8.242c-4.892,0.017-8.348-3.449-8.365-8.158l-0.05-16.122
			l3.845-0.012l0.033,10.122c1.071-1.449,2.946-2.286,5.008-2.293C106.576,16.079,110.002,19.544,110.02,24.313z M101.725,28.833
			c2.521-0.008,4.394-1.921,4.386-4.506c-0.007-2.585-1.891-4.487-4.414-4.478c-2.585,0.007-4.457,1.923-4.447,4.506
			C97.258,26.937,99.078,28.84,101.725,28.833z"/>
		<path fill="#516775" d="M122.479,16.334l0.012,3.786l-1.786,0.004c-2.585,0.009-4.332,1.83-4.323,4.538l0.023,7.537l-3.846,0.012
			l-0.022-7.537c-0.02-5.875,3.204-8.318,8.157-8.332L122.479,16.334z"/>
		<path fill="#516775" d="M124.883,10.664c-0.005-1.354,1.1-2.496,2.484-2.5c1.354-0.005,2.465,1.13,2.469,2.484
			c0.005,1.354-1.101,2.496-2.455,2.501C125.999,13.153,124.887,12.018,124.883,10.664z M129.302,16.312l0.052,15.847l-3.847,0.012
			l-0.051-15.847L129.302,16.312z"/>
		<path fill="#516775" d="M144.738,18.23l-0.033-10.123l3.847-0.012l0.052,16.121c0.014,4.709-3.514,8.196-8.312,8.212
			c-4.801,0.017-8.35-3.45-8.366-8.188c-0.016-4.768,3.358-8.255,7.789-8.269C141.745,15.964,143.657,16.79,144.738,18.23z
			 M140.282,19.722c-2.585,0.009-4.457,1.922-4.448,4.505c0.008,2.586,1.891,4.487,4.476,4.479c2.556-0.008,4.394-1.922,4.388-4.506
			C144.688,21.616,142.835,19.714,140.282,19.722z"/>
		<g>
			<path fill="#516775" d="M96.466,36.733l0.018,5.54l-0.854,0.002l-0.019-5.542l-2.237,0.007l-0.002-0.807l5.33-0.016l0.002,0.807
				L96.466,36.733z"/>
			<path fill="#516775" d="M100.755,42.342c-1.254,0.004-2.152-0.889-2.156-2.149c-0.005-1.27,0.914-2.158,2.182-2.162
				c1.195-0.006,2.053,0.814,2.056,1.954c0,0.171-0.017,0.317-0.047,0.465l-3.116,0.009c-0.146,0-0.219,0.064-0.219,0.196
				c0.003,0.447,0.548,0.967,1.328,0.964c0.497-0.001,0.993-0.182,1.21-0.612l0.806-0.003
				C102.495,41.912,101.69,42.34,100.755,42.342z M99.428,39.814l2.44-0.007c0.098,0,0.163-0.058,0.163-0.156
				c-0.002-0.432-0.492-0.925-1.239-0.923C100.05,38.73,99.523,39.156,99.428,39.814z"/>
			<path fill="#516775" d="M105.824,42.326c-1.229,0.004-2.135-0.905-2.14-2.15c-0.005-1.243,0.896-2.157,2.126-2.162
				c1.048-0.003,1.848,0.652,2.055,1.604l-0.855,0.002c-0.18-0.487-0.629-0.82-1.197-0.818c-0.758,0.003-1.301,0.59-1.299,1.37
				c0.003,0.791,0.55,1.366,1.306,1.364c0.562-0.002,1.016-0.328,1.192-0.818l0.856-0.002
				C107.66,41.671,106.872,42.323,105.824,42.326z"/>
			<path fill="#516775" d="M109.771,42.232l-0.814,0.001l-0.021-6.346l0.813-0.003l0.01,2.807c0.291-0.44,0.762-0.694,1.349-0.696
				c1.049-0.003,1.76,0.743,1.765,1.939l0.007,2.286l-0.813,0.002l-0.007-2.286c-0.003-0.699-0.452-1.154-1.103-1.151
				c-0.667,0.002-1.195,0.459-1.193,1.158L109.771,42.232z"/>
			<path fill="#516775" d="M116.096,37.98c1.14-0.004,1.979,0.728,1.983,2.004l0.007,2.222l-0.813,0.003l-0.007-2.205
				c-0.002-0.807-0.501-1.234-1.168-1.233c-0.666,0.003-1.163,0.436-1.16,1.24l0.007,2.205l-0.813,0.002l-0.007-2.222
				C114.122,38.719,114.956,37.985,116.096,37.98z"/>
			<path fill="#516775" d="M119.121,40.128c-0.005-1.255,0.913-2.159,2.165-2.163c1.262-0.005,2.175,0.896,2.179,2.148
				c0.005,1.261-0.903,2.158-2.165,2.162C120.048,42.28,119.126,41.389,119.121,40.128z M122.635,40.116
				c-0.002-0.791-0.557-1.366-1.347-1.363c-0.781,0.002-1.34,0.582-1.337,1.369c0.002,0.791,0.565,1.366,1.347,1.363
				C122.088,41.485,122.641,40.906,122.635,40.116z"/>
			<path fill="#516775" d="M125.439,35.837l0.021,6.347l-0.813,0.003l-0.021-6.348L125.439,35.837z"/>
			<path fill="#516775" d="M126.624,40.104c-0.005-1.254,0.913-2.158,2.165-2.163c1.261-0.005,2.174,0.897,2.18,2.148
				c0.004,1.262-0.904,2.158-2.166,2.163C127.551,42.257,126.629,41.366,126.624,40.104z M130.138,40.093
				c-0.002-0.791-0.557-1.366-1.347-1.364c-0.781,0.002-1.34,0.583-1.338,1.371c0.003,0.79,0.566,1.365,1.348,1.363
				C129.591,41.46,130.14,40.883,130.138,40.093z"/>
			<path fill="#516775" d="M134.073,44.026c-1.033,0.002-1.816-0.555-2.072-1.507l0.878-0.003c0.18,0.455,0.613,0.754,1.191,0.753
				c0.741-0.003,1.274-0.459,1.272-1.224l-0.003-0.563c-0.333,0.447-0.853,0.687-1.421,0.688c-1.212,0.004-2.118-0.865-2.123-2.084
				c-0.005-1.254,0.903-2.159,2.165-2.164c1.271-0.004,2.184,0.898,2.188,2.143l0.007,1.977
				C136.163,43.271,135.287,44.021,134.073,44.026z M133.975,38.712c-0.79,0.003-1.349,0.584-1.347,1.371
				c0.002,0.79,0.573,1.365,1.37,1.363c0.781-0.003,1.333-0.582,1.331-1.37C135.329,39.286,134.765,38.71,133.975,38.712z"/>
			<path fill="#516775" d="M137.346,36.433c0-0.301,0.249-0.554,0.559-0.554c0.301,0,0.556,0.248,0.556,0.552
				c0,0.31-0.25,0.563-0.554,0.563C137.599,36.993,137.346,36.74,137.346,36.433z M138.32,37.992l0.014,4.151l-0.814,0.002
				l-0.014-4.15L138.32,37.992z"/>
			<path fill="#516775" d="M141.652,42.214c-1.254,0.004-2.151-0.889-2.156-2.149c-0.005-1.271,0.914-2.158,2.182-2.163
				c1.196-0.005,2.054,0.815,2.056,1.955c0,0.17-0.016,0.317-0.046,0.464l-3.116,0.009c-0.147,0-0.22,0.066-0.22,0.196
				c0.002,0.448,0.548,0.968,1.329,0.965c0.495-0.002,0.993-0.182,1.21-0.611l0.807-0.003
				C143.392,41.784,142.587,42.209,141.652,42.214z M140.326,39.687l2.44-0.007c0.099,0,0.163-0.059,0.163-0.156
				c-0.003-0.431-0.492-0.925-1.241-0.923C140.948,38.601,140.422,39.026,140.326,39.687z"/>
			<path fill="#516775" d="M144.545,40.828l0.854-0.002c0.141,0.48,0.613,0.673,1.183,0.671c0.578-0.002,0.978-0.19,0.975-0.596
				c0-0.343-0.277-0.487-0.67-0.51l-0.91-0.071c-0.732-0.053-1.313-0.409-1.315-1.151c-0.002-0.839,0.736-1.279,1.72-1.284
				c0.951-0.002,1.728,0.401,1.933,1.296l-0.862,0.003c-0.172-0.455-0.646-0.608-1.067-0.607c-0.536,0.003-0.911,0.183-0.908,0.558
				c0,0.333,0.26,0.465,0.659,0.487l0.888,0.063c0.822,0.063,1.346,0.428,1.348,1.159c0.002,0.888-0.786,1.354-1.828,1.356
				C145.518,42.199,144.717,41.738,144.545,40.828z"/>
		</g>
	</g>
	<g>
		
			<linearGradient id="SVGID_1_" gradientUnits="userSpaceOnUse" x1="691.835" y1="-142.9297" x2="631.6117" y2="-304.1304" gradientTransform="matrix(0.313 0 0 -0.313 -185.8696 -61.0942)">
			<stop  offset="0.2293" style="stop-color:#0000FC"/>
			<stop  offset="0.3105" style="stop-color:#030BFC"/>
			<stop  offset="0.4542" style="stop-color:#0C29FC"/>
			<stop  offset="0.6436" style="stop-color:#195AFD"/>
			<stop  offset="0.8687" style="stop-color:#2C9CFE"/>
			<stop  offset="1" style="stop-color:#38C6FE"/>
		</linearGradient>
		<path fill="url(#SVGID_1_)" d="M24.312,22.411l-3.452,5.988l-9.117,0.034l3.355-5.994c0.7-1.212,0.698-2.707-0.009-3.916
			l-3.464-5.953l9.165-0.105l3.51,6.029C25.006,19.705,25.011,21.199,24.312,22.411z"/>
		
			<linearGradient id="SVGID_2_" gradientUnits="userSpaceOnUse" x1="2182.2529" y1="967.5381" x2="2167.0054" y2="1174.9054" gradientTransform="matrix(0.2716 0.1555 0.1555 -0.2716 -738.0913 -4.5416)">
			<stop  offset="0.526" style="stop-color:#0000FC"/>
			<stop  offset="0.7118" style="stop-color:#1753FD"/>
			<stop  offset="0.9095" style="stop-color:#2FA5FE"/>
			<stop  offset="1" style="stop-color:#38C6FE"/>
		</linearGradient>
		<path fill="url(#SVGID_2_)" d="M34.798,20.385l-3.419,6.011c-0.692,1.217-1.981,1.97-3.382,1.976l-6.983,0.024v0.003l-9.27,0.034
			l3.57,6.053c0.706,1.196,1.991,1.926,3.38,1.921l13.754-0.049c1.389-0.005,2.67-0.746,3.365-1.949l8.163-14.086L34.798,20.385z"/>
		
			<linearGradient id="SVGID_3_" gradientUnits="userSpaceOnUse" x1="2223.3262" y1="1171.667" x2="2089.6438" y2="1171.667" gradientTransform="matrix(0.2716 0.1555 0.1555 -0.2716 -738.0913 -4.5416)">
			<stop  offset="0.123" style="stop-color:#0000FC"/>
			<stop  offset="0.3082" style="stop-color:#0F39FD"/>
			<stop  offset="0.5533" style="stop-color:#227DFE"/>
			<stop  offset="0.7587" style="stop-color:#2FAFFE"/>
			<stop  offset="0.9136" style="stop-color:#38CEFF"/>
			<stop  offset="1" style="stop-color:#3BDAFF"/>
		</linearGradient>
		<path fill="url(#SVGID_3_)" d="M32.409,4.357L18.515,4.446c-1.391,0.009-2.673,0.757-3.363,1.964l-3.529,6.163l15.847-0.182l0,0
			l0.401-0.002c1.401-0.01,2.697,0.731,3.401,1.941l3.412,5.862l0,0l0.101,0.172l0.011,0.019l9.179-0.058L35.81,6.298
			C35.105,5.089,33.807,4.348,32.409,4.357z"/>
	</g>
</g>
</svg>
